# xmcd
#
# Track frame offsets:
#	150
#	16006
#	41062
#	64140
#	82828
#	103580
#	120322
#	134811
#	152401
#	170827
#	188578
#	204143
#	220225
#	239811
#	257342
#	277395
#	296057
#	317014
#
# Disc length: 4437 seconds
# Revision: 0
# Processed by: cddbd v1.5.2PL0 Copyright (c) Steve Scherf et al.
# Submitted via: dBpowerAMP V12.0
#
DISCID=04115312
DTITLE=Giannis Parios - Gia Panta Mazi
DYEAR=2009
DGENRE=
TTITLE0=Vammenos Ilios
TTITLE1=Den Girizo Piso
TTITLE2=Sto Kato Kato Tis Grafis
TTITLE3=To Palio Krevati
TTITLE4=Mi me Sigrnis
TTITLE5=Ti na kano
TTITLE6=Ti na tin kano ti signomi sou
TTITLE7=Mia Sinithismeni Mera
TTITLE8=Ah Zoi mou
TTITLE9=Oh Kaime
TTITLE10=To Poulao to spiti
TTITLE11=De Eho allo thanato
TTITLE12=Tsigaro
TTITLE13=Se Kernao tin anixi
TTITLE14=Allou i thalssa ki allou to plio
TTITLE15=Mia Pisto Apo Fostoro (Live)
TTITLE16=Afti i nihta meni (Live)
TTITLE17=Hartino to feggaraki (Live)
EXTD=
EXTT0=
EXTT1=
EXTT2=
EXTT3=
EXTT4=
EXTT5=
EXTT6=
EXTT7=
EXTT8=
EXTT9=
EXTT10=
EXTT11=
EXTT12=
EXTT13=
EXTT14=
EXTT15=
EXTT16=
EXTT17=
PLAYORDER=
